<svg width="18" height="18" viewBox="0 0 18 18" fill="none" xmlns="http://www.w3.org/2000/svg">
<path d="M3.9375 4.5H6.75V5.625H3.9375V4.5ZM3.9375 6.75H6.75V7.875H3.9375V6.75ZM3.9375 9H6.75V10.125H3.9375V9ZM11.25 4.5H14.0625V5.625H11.25V4.5ZM11.25 6.75H14.0625V7.875H11.25V6.75ZM11.25 9H14.0625V10.125H11.25V9Z" fill="white"/>
<path d="M15.75 2.25H2.25C1.95172 2.2503 1.66575 2.36892 1.45483 2.57983C1.24392 2.79075 1.1253 3.07672 1.125 3.375V15.75C1.1253 16.0483 1.24392 16.3343 1.45483 16.5452C1.66575 16.7561 1.95172 16.8747 2.25 16.875H15.75C16.0483 16.8747 16.3343 16.7561 16.5452 16.5452C16.7561 16.3343 16.8747 16.0483 16.875 15.75V3.375C16.8747 3.07672 16.7561 2.79075 16.5452 2.57983C16.3343 2.36892 16.0483 2.2503 15.75 2.25ZM2.25 3.375H8.4375V15.75H2.25V3.375ZM9.5625 15.75V3.375H15.75V15.75H9.5625Z" fill="white"/>
</svg>
