<svg width="14" height="14" viewBox="0 0 14 14" fill="none" xmlns="http://www.w3.org/2000/svg">
<path fill-rule="evenodd" clip-rule="evenodd" d="M2.33334 10.5C2.33334 11.1188 2.57918 11.7123 3.01676 12.1499C3.45435 12.5875 4.04784 12.8333 4.66668 12.8333L9.33334 12.8333C9.95218 12.8333 10.5457 12.5875 10.9833 12.1499C11.4208 11.7123 11.6667 11.1188 11.6667 10.5L11.6667 3.49999C11.6667 2.88116 11.4208 2.28766 10.9833 1.85008C10.5457 1.41249 9.95218 1.16666 9.33334 1.16666L4.66668 1.16666C4.04784 1.16666 3.45435 1.4125 3.01676 1.85008C2.57918 2.28766 2.33334 2.88116 2.33334 3.5L2.33334 10.5ZM3.50001 5.83333L3.50001 8.16666L10.5 8.16666L10.5 5.83333L3.50001 5.83333ZM3.50001 4.66666L10.5 4.66666L10.5 3.49999C10.5 3.19058 10.3771 2.89383 10.1583 2.67504C9.93951 2.45624 9.64276 2.33333 9.33334 2.33333L4.66668 2.33333C4.35726 2.33333 4.06051 2.45625 3.84172 2.67504C3.62293 2.89383 3.50001 3.19058 3.50001 3.5L3.50001 4.66666ZM10.5 10.5L10.5 9.33333L3.50001 9.33333L3.50001 10.5C3.50001 10.8094 3.62293 11.1062 3.84172 11.325C4.06051 11.5437 4.35726 11.6667 4.66668 11.6667L9.33334 11.6667C9.64276 11.6667 9.93951 11.5437 10.1583 11.325C10.3771 11.1062 10.5 10.8094 10.5 10.5Z" fill="#00B0D7"/>
</svg>
