<svg width="18" height="15" viewBox="0 0 18 15" fill="none" xmlns="http://www.w3.org/2000/svg">
<path d="M12.75 10L15.75 7.5M15.75 7.5L12.75 5M15.75 7.5H5.25M9.75 10V10.625C9.75 11.1223 9.51295 11.5992 9.09099 11.9508C8.66903 12.3025 8.09674 12.5 7.5 12.5H4.5C3.90326 12.5 3.33097 12.3025 2.90901 11.9508C2.48705 11.5992 2.25 11.1223 2.25 10.625V4.375C2.25 3.87772 2.48705 3.40081 2.90901 3.04917C3.33097 2.69754 3.90326 2.5 4.5 2.5H7.5C8.09674 2.5 8.66903 2.69754 9.09099 3.04917C9.51295 3.40081 9.75 3.87772 9.75 4.375V5" stroke="#707276" stroke-linecap="round" stroke-linejoin="round"/>
</svg>
