<svg width="13" height="13" viewBox="0 0 13 13" fill="none" xmlns="http://www.w3.org/2000/svg">
<path d="M8.66668 1.08333H4.33334C2.54097 1.08333 1.08334 2.54095 1.08334 4.33333V10.8333C1.08334 10.977 1.14041 11.1148 1.24199 11.2163C1.34358 11.3179 1.48135 11.375 1.62501 11.375H8.66668C10.4591 11.375 11.9167 9.91737 11.9167 8.125V4.33333C11.9167 2.54095 10.4591 1.08333 8.66668 1.08333ZM10.8333 8.125C10.8333 9.31991 9.86159 10.2917 8.66668 10.2917H2.16668V4.33333C2.16668 3.13841 3.13843 2.16666 4.33334 2.16666H8.66668C9.86159 2.16666 10.8333 3.13841 10.8333 4.33333V8.125Z" fill="#707276"/>
</svg>
