<svg width="24" height="24" viewBox="0 0 24 24" fill="none" xmlns="http://www.w3.org/2000/svg">
<path d="M16.6667 2.66667H7.33333C6.97971 2.66667 6.64057 2.80715 6.39052 3.0572C6.14048 3.30724 6 3.64638 6 4.00001V20C6 20.3536 6.14048 20.6928 6.39052 20.9428C6.64057 21.1929 6.97971 21.3333 7.33333 21.3333H16.6667C17.0203 21.3333 17.3594 21.1929 17.6095 20.9428C17.8595 20.6928 18 20.3536 18 20V4.00001C18 3.64638 17.8595 3.30724 17.6095 3.0572C17.3594 2.80715 17.0203 2.66667 16.6667 2.66667ZM12.6667 20H11.3333V18.6667H12.6667V20ZM7.33333 17.3333V4.00001H16.6667V17.3333H7.33333Z" fill="white"/>
</svg>
