<svg width="12" height="13" viewBox="0 0 12 13" fill="none" xmlns="http://www.w3.org/2000/svg">
<path d="M10.8367 10.2767C10.5152 9.99012 10.2338 9.66162 10 9.30001C9.74474 8.80086 9.59174 8.25575 9.55 7.69668V6.05001C9.5522 5.17188 9.23367 4.32317 8.65424 3.66333C8.07482 3.0035 7.27438 2.57796 6.40333 2.46667V2.03667C6.40333 1.91865 6.35644 1.80547 6.27299 1.72201C6.18954 1.63856 6.07635 1.59167 5.95833 1.59167C5.84031 1.59167 5.72712 1.63856 5.64367 1.72201C5.56021 1.80547 5.51333 1.91865 5.51333 2.03667V2.47334C4.65008 2.59265 3.85932 3.02076 3.28751 3.67838C2.71569 4.33599 2.40157 5.17856 2.40333 6.05001V7.69668C2.36158 8.25575 2.20859 8.80086 1.95333 9.30001C1.72362 9.66079 1.44673 9.98925 1.13 10.2767C1.09444 10.3079 1.06594 10.3464 1.0464 10.3895C1.02686 10.4326 1.01672 10.4793 1.01666 10.5267V10.98C1.01666 11.0684 1.05178 11.1532 1.11429 11.2157C1.17681 11.2782 1.26159 11.3133 1.35 11.3133H10.6167C10.7051 11.3133 10.7899 11.2782 10.8524 11.2157C10.9149 11.1532 10.95 11.0684 10.95 10.98V10.5267C10.9499 10.4793 10.9398 10.4326 10.9203 10.3895C10.9007 10.3464 10.8722 10.3079 10.8367 10.2767ZM1.71 10.6467C2.02013 10.3471 2.2932 10.0113 2.52333 9.64668C2.84487 9.04383 3.03247 8.37868 3.07333 7.69668V6.05001C3.06011 5.65935 3.12564 5.27003 3.26601 4.90523C3.40638 4.54043 3.61873 4.2076 3.89041 3.92658C4.16209 3.64555 4.48754 3.42206 4.84739 3.26943C5.20724 3.1168 5.59412 3.03814 5.985 3.03814C6.37587 3.03814 6.76276 3.1168 7.1226 3.26943C7.48245 3.42206 7.8079 3.64555 8.07958 3.92658C8.35126 4.2076 8.56361 4.54043 8.70398 4.90523C8.84435 5.27003 8.90988 5.65935 8.89666 6.05001V7.69668C8.93752 8.37868 9.12512 9.04383 9.44666 9.64668C9.6768 10.0113 9.94986 10.3471 10.26 10.6467H1.71Z" fill="black"/>
<path d="M5.99999 12.4267C6.20997 12.4218 6.41147 12.3429 6.56886 12.2038C6.72624 12.0647 6.82937 11.8744 6.85999 11.6667H5.10666C5.13815 11.8801 5.2461 12.0748 5.41043 12.2146C5.57475 12.3544 5.78427 12.4298 5.99999 12.4267Z" fill="black"/>
<circle cx="9" cy="2" r="2" fill="#FF0000"/>
</svg>
