<svg width="21" height="21" viewBox="0 0 21 21" fill="none" xmlns="http://www.w3.org/2000/svg">
<path d="M17.7003 10.6333H10.3667V3.2997C10.3667 3.20947 10.2929 3.13564 10.2026 3.13564H9.66943C8.59335 3.13454 7.52765 3.34593 6.53346 3.75769C5.53927 4.16944 4.63617 4.77345 3.87598 5.53506C3.12751 6.28121 2.53129 7.16579 2.12051 8.13955C1.69395 9.15058 1.47656 10.2231 1.47656 11.3306C1.47656 12.438 1.69395 13.5085 2.12051 14.5195C2.53271 15.4937 3.12334 16.3714 3.87598 17.124C4.62861 17.8767 5.5043 18.4673 6.48047 18.8795C7.48974 19.3077 8.57515 19.5274 9.67148 19.5255C10.7476 19.5266 11.8133 19.3152 12.8075 18.9034C13.8016 18.4917 14.7047 17.8877 15.4649 17.1261C16.2176 16.3734 16.8082 15.4978 17.2204 14.5216C17.6486 13.5123 17.8683 12.4269 17.8664 11.3306V10.7974C17.8644 10.7071 17.7905 10.6333 17.7003 10.6333ZM19.5029 9.49511L19.4496 8.91679C19.2753 7.03008 18.4386 5.25 17.0892 3.90674C15.741 2.55971 13.9645 1.72621 12.0668 1.55039L11.4864 1.49707C11.39 1.48886 11.308 1.56269 11.308 1.65908V9.52793C11.308 9.61816 11.3818 9.69199 11.4721 9.69199L19.3389 9.67148C19.4353 9.66943 19.5111 9.58945 19.5029 9.49511Z" fill="white"/>
</svg>
