<svg width="14" height="14" viewBox="0 0 14 14" fill="none" xmlns="http://www.w3.org/2000/svg">
<path d="M11.6667 4.66667L8.16668 1.16667H3.50001C3.19059 1.16667 2.89384 1.28959 2.67505 1.50838C2.45626 1.72717 2.33334 2.02392 2.33334 2.33334V11.6667C2.33334 11.9761 2.45626 12.2728 2.67505 12.4916C2.89384 12.7104 3.19059 12.8333 3.50001 12.8333H10.5C10.8094 12.8333 11.1062 12.7104 11.325 12.4916C11.5438 12.2728 11.6667 11.9761 11.6667 11.6667V4.66667ZM5.25001 11.0833H4.08334V5.83334H5.25001V11.0833ZM7.58334 11.0833H6.41668V7.58334H7.58334V11.0833ZM9.91668 11.0833H8.75001V9.33334H9.91668V11.0833ZM8.16668 5.25H7.58334V2.33334L10.5 5.25H8.16668Z" fill="white"/>
</svg>
