<svg width="13" height="13" viewBox="0 0 13 13" fill="none" xmlns="http://www.w3.org/2000/svg">
<path d="M9.42014 1.51734C9.42019 1.32707 9.34466 1.14456 9.21015 1.00998C9.07564 0.875394 8.89318 0.799756 8.7029 0.799702C8.60869 0.799675 8.51539 0.818206 8.42834 0.854236C8.34128 0.890266 8.26218 0.943089 8.19554 1.00969C8.06096 1.1442 7.98532 1.32666 7.98526 1.51694C7.98526 1.91303 8.7027 3.2504 8.7027 3.2504C8.7027 3.2504 9.42014 1.91303 9.42014 1.51694V1.51734ZM8.35982 1.51734C8.35821 1.47135 8.36588 1.4255 8.38236 1.38254C8.39884 1.33957 8.42381 1.30036 8.45576 1.26725C8.48772 1.23413 8.52602 1.20779 8.56837 1.18979C8.61072 1.17178 8.65627 1.16249 8.70229 1.16247C8.74831 1.16244 8.79386 1.17168 8.83624 1.18963C8.87861 1.20758 8.91694 1.23388 8.94893 1.26695C8.98093 1.30003 9.00594 1.33921 9.02247 1.38216C9.03901 1.42511 9.04673 1.47094 9.04517 1.51694C9.04216 1.60578 9.00477 1.68998 8.94088 1.75178C8.87698 1.81359 8.79159 1.84816 8.70269 1.84822C8.6138 1.84827 8.52836 1.8138 8.4644 1.75207C8.40043 1.69034 8.36294 1.60618 8.35982 1.51734ZM10.2704 7.51359C10.0429 7.51359 9.82476 7.53269 9.62448 7.56356L4.50939 5.67775C4.59064 5.60462 4.63614 5.52337 4.63614 5.43806C4.63509 5.39309 4.6228 5.34909 4.60039 5.31009L8.01695 4.4009C8.20382 4.45656 8.43254 4.49028 8.68564 4.49028C9.30314 4.49028 9.80282 4.29365 9.80282 4.05072C9.80282 3.80697 9.30314 3.61075 8.68564 3.61075C8.06814 3.61075 7.56845 3.80778 7.56845 4.05072C7.56845 4.07915 7.57658 4.10637 7.59039 4.13278L4.02026 4.95625C3.72093 4.87181 3.41111 4.83036 3.10011 4.83315C2.25226 4.83315 1.56448 5.10412 1.56448 5.43847C1.56448 5.77281 2.25226 6.04378 3.10011 6.04378C3.33329 6.04378 3.55104 6.02144 3.74929 5.98487L8.62023 7.96169C8.54304 8.03969 8.49592 8.12419 8.49592 8.21478C8.49592 8.29197 8.53492 8.36265 8.59179 8.43131L3.53236 10.3248C3.46817 10.3228 3.40398 10.3208 3.33858 10.3208C2.02233 10.3208 0.953888 10.7417 0.953888 11.2592C0.953888 11.778 2.02233 12.1989 3.33858 12.1989C4.65483 12.1989 5.72326 11.7788 5.72326 11.2596C5.72326 11.1702 5.68954 11.0841 5.62983 11.0025L9.80039 8.88428C9.9507 8.90053 10.1063 8.91069 10.2696 8.91069C11.2499 8.91069 12.0449 8.59787 12.0449 8.21072C12.0449 7.82722 11.2499 7.51359 10.2696 7.51359H10.2704Z" fill="#707276"/>
</svg>
