<svg width="13" height="13" viewBox="0 0 13 13" fill="none" xmlns="http://www.w3.org/2000/svg">
<path d="M4.87501 10.8333H3.25001C2.67537 10.8333 2.12427 10.6051 1.71795 10.1987C1.31162 9.7924 1.08334 9.2413 1.08334 8.66666V3.79166C1.08334 3.21703 1.31162 2.66593 1.71795 2.2596C2.12427 1.85327 2.67537 1.62499 3.25001 1.62499H9.20834C9.78298 1.62499 10.3341 1.85327 10.7404 2.2596C11.1467 2.66593 11.375 3.21703 11.375 3.79166V5.41666M4.33334 1.08333V2.16666M8.12501 1.08333V2.16666M1.08334 4.33333H11.375M10.0208 8.47329L9.20834 9.28579" stroke="#707276" stroke-linecap="round" stroke-linejoin="round"/>
<path d="M9.20833 11.9167C10.7041 11.9167 11.9167 10.7041 11.9167 9.20833C11.9167 7.71256 10.7041 6.5 9.20833 6.5C7.71256 6.5 6.5 7.71256 6.5 9.20833C6.5 10.7041 7.71256 11.9167 9.20833 11.9167Z" stroke="#707276" stroke-linecap="round" stroke-linejoin="round"/>
</svg>
