<svg width="22" height="22" viewBox="0 0 22 22" fill="none" xmlns="http://www.w3.org/2000/svg">
<path d="M20.1667 15.5852C20.1663 16.8388 19.7378 18.0546 18.9521 19.0315C18.1664 20.0083 17.0708 20.6876 15.8464 20.9568L15.2616 19.2023C15.7971 19.1141 16.3064 18.9082 16.7528 18.5994C17.1992 18.2907 17.5715 17.8867 17.8429 17.4167H15.5833C15.0971 17.4167 14.6308 17.2235 14.287 16.8797C13.9431 16.5359 13.75 16.0696 13.75 15.5833V11.9167C13.75 11.4304 13.9431 10.9641 14.287 10.6203C14.6308 10.2765 15.0971 10.0833 15.5833 10.0833H18.2765C18.0528 8.31132 17.1902 6.68184 15.8505 5.50062C14.5108 4.31941 12.7861 3.66766 11 3.66766C9.21392 3.66766 7.48922 4.31941 6.14952 5.50062C4.80982 6.68184 3.94719 8.31132 3.72349 10.0833H6.41666C6.90289 10.0833 7.36921 10.2765 7.71302 10.6203C8.05684 10.9641 8.25 11.4304 8.25 11.9167V15.5833C8.25 16.0696 8.05684 16.5359 7.71302 16.8797C7.36921 17.2235 6.90289 17.4167 6.41666 17.4167H3.66666C3.18043 17.4167 2.71412 17.2235 2.3703 16.8797C2.02648 16.5359 1.83333 16.0696 1.83333 15.5833V11C1.83333 5.93725 5.93725 1.83334 11 1.83334C16.0627 1.83334 20.1667 5.93725 20.1667 11V15.5852ZM18.3333 15.5833V11.9167H15.5833V15.5833H18.3333ZM3.66666 11.9167V15.5833H6.41666V11.9167H3.66666Z" fill="white"/>
</svg>
