<svg width="13" height="13" viewBox="0 0 13 13" fill="none" xmlns="http://www.w3.org/2000/svg">
<path d="M0.875 2.125H3.375M12.125 2.125H5.875M0.875 6.5H8.375M12.125 6.5H10.875M0.875 10.875H2.125M12.125 10.875H4.625" stroke="#707276" stroke-linecap="round"/>
<path d="M4.625 3.375C5.31536 3.375 5.875 2.81536 5.875 2.125C5.875 1.43464 5.31536 0.875 4.625 0.875C3.93464 0.875 3.375 1.43464 3.375 2.125C3.375 2.81536 3.93464 3.375 4.625 3.375Z" stroke="#707276" stroke-linecap="round"/>
<path d="M9.625 7.75C10.3154 7.75 10.875 7.19036 10.875 6.5C10.875 5.80964 10.3154 5.25 9.625 5.25C8.93464 5.25 8.375 5.80964 8.375 6.5C8.375 7.19036 8.93464 7.75 9.625 7.75Z" stroke="#707276" stroke-linecap="round"/>
<path d="M3.375 12.125C4.06536 12.125 4.625 11.5654 4.625 10.875C4.625 10.1846 4.06536 9.625 3.375 9.625C2.68464 9.625 2.125 10.1846 2.125 10.875C2.125 11.5654 2.68464 12.125 3.375 12.125Z" stroke="#707276" stroke-linecap="round"/>
</svg>
