<svg width="12" height="12" viewBox="0 0 12 12" fill="none" xmlns="http://www.w3.org/2000/svg">
<path d="M6.58335 1.37359V0.166672H5.41669V1.37359C4.39012 1.50446 3.43607 1.97252 2.7043 2.70429C1.97253 3.43605 1.50448 4.3901 1.3736 5.41667H0.166687V6.58334H1.3736C1.50438 7.60994 1.97241 8.56405 2.70419 9.29583C3.43598 10.0276 4.39008 10.4956 5.41669 10.6264V11.8333H6.58335V10.6264C7.60996 10.4956 8.56406 10.0276 9.29585 9.29583C10.0276 8.56405 10.4957 7.60994 10.6264 6.58334H11.8334V5.41667H10.6264C10.4956 4.3901 10.0275 3.43605 9.29574 2.70429C8.56397 1.97252 7.60992 1.50446 6.58335 1.37359V1.37359ZM6.00002 9.5C4.06977 9.5 2.50002 7.93025 2.50002 6C2.50002 4.06975 4.06977 2.50001 6.00002 2.50001C7.93027 2.50001 9.50002 4.06975 9.50002 6C9.50002 7.93025 7.93027 9.5 6.00002 9.5Z" fill="#707276"/>
<path d="M6 7.75C6.9665 7.75 7.75 6.9665 7.75 6C7.75 5.0335 6.9665 4.25 6 4.25C5.0335 4.25 4.25 5.0335 4.25 6C4.25 6.9665 5.0335 7.75 6 7.75Z" fill="#707276"/>
</svg>
