<svg width="12" height="12" viewBox="0 0 12 12" fill="none" xmlns="http://www.w3.org/2000/svg">
<path d="M10.9303 4.40944C11.1507 4.19124 11.3256 3.93147 11.4449 3.64517C11.5641 3.35888 11.6253 3.05176 11.625 2.74163C11.625 1.44169 10.5696 0.388125 9.26831 0.387938H9.26737C8.61488 0.387938 8.02369 0.653063 7.59713 1.08131L8.98781 2.46975L8.6745 2.78644C7.89169 2.24866 6.96399 1.96135 6.01425 1.96256C5.06453 1.96128 4.13683 2.24852 3.354 2.78625L3.01819 2.44669L4.37681 1.07269C4.16057 0.851721 3.90235 0.676181 3.61734 0.556372C3.33232 0.436563 3.02624 0.374899 2.71706 0.375C1.4235 0.375 0.375 1.43531 0.375 2.74331C0.375 3.39956 0.638625 3.99337 1.06519 4.42219L2.43806 3.03375L2.71463 3.31331C2.26308 3.75522 1.9045 4.283 1.66 4.86558C1.4155 5.44815 1.29002 6.07376 1.29094 6.70556C1.29094 7.647 1.56525 8.52375 2.03625 9.26175L1.64081 11.625H1.99069C2.20931 11.625 2.29013 11.3683 2.43225 11.049C2.55862 10.7624 2.68374 10.4753 2.80763 10.1876C3.64969 10.9706 4.776 11.4493 6.01425 11.4493C7.25231 11.4493 8.37844 10.9703 9.22088 10.1876C9.34473 10.4753 9.46992 10.7625 9.59644 11.049C9.73875 11.3683 9.81919 11.625 10.0378 11.625H10.3877L9.99281 9.26119C10.4803 8.49811 10.7389 7.61126 10.7378 6.70575C10.7387 6.07397 10.6132 5.4484 10.3687 4.86585C10.1242 4.2833 9.76561 3.75556 9.31406 3.31369L9.57206 3.05306L10.9303 4.40944ZM9.68813 6.70575C9.68813 8.74331 8.04319 10.3954 6.01425 10.3954C3.98531 10.3954 2.34056 8.74331 2.34056 6.70575C2.34056 4.66856 3.98513 3.01669 6.01425 3.01669C8.043 3.01669 9.68813 4.66838 9.68813 6.70575Z" fill="#707276"/>
<path d="M6.36396 6.10088V4.07082H5.6644V6.10088C5.55821 6.16227 5.47001 6.25047 5.40861 6.35666C5.34721 6.46284 5.31476 6.58328 5.31452 6.70594C5.31452 6.86175 5.36646 7.00463 5.45177 7.12107L3.86102 8.72944L4.07852 8.94994L5.68671 7.32375C5.78459 7.37625 5.89521 7.40888 6.01427 7.40888C6.27265 7.40888 6.49559 7.26675 6.61709 7.0575H7.76365V6.35494H6.61709C6.55627 6.24966 6.46902 6.16208 6.36396 6.10088Z" fill="#707276"/>
</svg>
