<svg width="18" height="18" viewBox="0 0 18 18" fill="none" xmlns="http://www.w3.org/2000/svg">
<path fill-rule="evenodd" clip-rule="evenodd" d="M0 5.625C0 5.02826 0.237053 4.45597 0.65901 4.03401C1.08097 3.61205 1.65326 3.375 2.25 3.375H10.6875C11.2332 3.37494 11.7604 3.57322 12.1708 3.93292C12.5812 4.29262 12.8469 4.78922 12.9184 5.33025L16.4171 3.7755C16.5884 3.69919 16.776 3.6669 16.9629 3.68155C17.1498 3.6962 17.3301 3.75733 17.4874 3.85938C17.6447 3.96144 17.7739 4.10118 17.8635 4.26591C17.953 4.43065 17.9999 4.61514 18 4.80263V13.1974C17.9998 13.3847 17.9529 13.569 17.8634 13.7336C17.774 13.8982 17.6448 14.0379 17.4877 14.1399C17.3306 14.2419 17.1505 14.3031 16.9637 14.3179C16.7769 14.3327 16.5895 14.3006 16.4182 14.2245L12.9184 12.6698C12.8469 13.2108 12.5812 13.7074 12.1708 14.0671C11.7604 14.4268 11.2332 14.6251 10.6875 14.625H2.25C1.65326 14.625 1.08097 14.3879 0.65901 13.966C0.237053 13.544 0 12.9717 0 12.375V5.625ZM12.9375 11.4469L16.875 13.1974V4.80263L12.9375 6.55312V11.4469ZM2.25 4.5C1.95163 4.5 1.66548 4.61853 1.4545 4.82951C1.24353 5.04048 1.125 5.32663 1.125 5.625V12.375C1.125 12.6734 1.24353 12.9595 1.4545 13.1705C1.66548 13.3815 1.95163 13.5 2.25 13.5H10.6875C10.9859 13.5 11.272 13.3815 11.483 13.1705C11.694 12.9595 11.8125 12.6734 11.8125 12.375V5.625C11.8125 5.32663 11.694 5.04048 11.483 4.82951C11.272 4.61853 10.9859 4.5 10.6875 4.5H2.25Z" fill="white"/>
</svg>
