<svg width="20" height="20" viewBox="0 0 20 20" fill="none" xmlns="http://www.w3.org/2000/svg">
<path d="M11.9633 2.1625C11.9809 2.14039 12.0028 2.12208 12.0277 2.10869C12.0526 2.0953 12.0799 2.08711 12.108 2.08462C12.1362 2.08212 12.1645 2.08538 12.1914 2.09418C12.2182 2.10299 12.243 2.11716 12.2642 2.13584L13.0317 2.8125L10.6158 5.83334H12.2167L13.9717 3.64L15.3483 4.85417C15.389 4.89014 15.4141 4.94059 15.4181 4.99476C15.4222 5.04894 15.4049 5.10255 15.37 5.14417L14.795 5.83334H16.415C16.6157 5.53957 16.702 5.18258 16.6578 4.82957C16.6136 4.47656 16.4419 4.15189 16.175 3.91667L13.0917 1.1975C12.9429 1.06651 12.769 0.967204 12.5806 0.905664C12.3922 0.844123 12.1932 0.821635 11.9958 0.839572C11.7985 0.85751 11.6068 0.915497 11.4326 1.00999C11.2583 1.10449 11.1052 1.23351 10.9825 1.38917L7.48 5.83334H9.07167L11.9633 2.1625ZM13.5417 11.6667C13.3759 11.6667 13.2169 11.7325 13.0997 11.8497C12.9825 11.9669 12.9167 12.1259 12.9167 12.2917C12.9167 12.4574 12.9825 12.6164 13.0997 12.7336C13.2169 12.8508 13.3759 12.9167 13.5417 12.9167H15.2083C15.3741 12.9167 15.5331 12.8508 15.6503 12.7336C15.7675 12.6164 15.8333 12.4574 15.8333 12.2917C15.8333 12.1259 15.7675 11.9669 15.6503 11.8497C15.5331 11.7325 15.3741 11.6667 15.2083 11.6667H13.5417ZM3.75 6.04167C3.75 5.87591 3.81585 5.71694 3.93306 5.59973C4.05027 5.48252 4.20924 5.41667 4.375 5.41667H6.98167L7.975 4.16667H4.375C3.87772 4.16667 3.40081 4.36421 3.04917 4.71584C2.69754 5.06748 2.5 5.54439 2.5 6.04167V14.7917C2.5 15.51 2.78534 16.1988 3.29325 16.7068C3.80116 17.2147 4.49004 17.5 5.20833 17.5H15.2083C15.9266 17.5 16.6155 17.2147 17.1234 16.7068C17.6313 16.1988 17.9167 15.51 17.9167 14.7917V9.375C17.9167 8.65671 17.6313 7.96783 17.1234 7.45992C16.6155 6.95201 15.9266 6.66667 15.2083 6.66667H4.375C4.20924 6.66667 4.05027 6.60082 3.93306 6.48361C3.81585 6.3664 3.75 6.20743 3.75 6.04167ZM3.75 14.7917V7.81C3.94583 7.87917 4.15583 7.91667 4.375 7.91667H15.2083C16.0133 7.91667 16.6667 8.57 16.6667 9.375V14.7917C16.6667 15.1784 16.513 15.5494 16.2395 15.8229C15.966 16.0964 15.5951 16.25 15.2083 16.25H5.20833C4.82156 16.25 4.45063 16.0964 4.17714 15.8229C3.90365 15.5494 3.75 15.1784 3.75 14.7917Z" fill="white"/>
</svg>
