<svg width="21" height="21" viewBox="0 0 21 21" fill="none" xmlns="http://www.w3.org/2000/svg">
<path d="M17.9375 3.5H3.0625C2.33763 3.5 1.75 4.08763 1.75 4.8125V16.1875C1.75 16.9124 2.33763 17.5 3.0625 17.5H17.9375C18.6624 17.5 19.25 16.9124 19.25 16.1875V4.8125C19.25 4.08763 18.6624 3.5 17.9375 3.5Z" stroke="white" stroke-width="1.5" stroke-linejoin="round"/>
<path d="M1.75 4.8125C1.75 4.4644 1.88828 4.13056 2.13442 3.88442C2.38056 3.63828 2.7144 3.5 3.0625 3.5H17.9375C18.2856 3.5 18.6194 3.63828 18.8656 3.88442C19.1117 4.13056 19.25 4.4644 19.25 4.8125V8.75H1.75V4.8125Z" stroke="white" stroke-width="1.5"/>
<path d="M3.5 6.125C3.5 5.64175 3.89175 5.25 4.375 5.25C4.85825 5.25 5.25 5.64175 5.25 6.125C5.25 6.60825 4.85825 7 4.375 7C3.89175 7 3.5 6.60825 3.5 6.125Z" fill="white"/>
<path d="M6.125 6.125C6.125 5.64175 6.51675 5.25 7 5.25C7.48325 5.25 7.875 5.64175 7.875 6.125C7.875 6.60825 7.48325 7 7 7C6.51675 7 6.125 6.60825 6.125 6.125Z" fill="white"/>
</svg>
