<svg width="13" height="13" viewBox="0 0 13 13" fill="none" xmlns="http://www.w3.org/2000/svg">
<path d="M5.9998 1.66562C6.03027 1.66562 6.06836 1.68086 6.10137 1.72656C5.9541 1.51582 6.26641 1.60723 6.28418 1.40664C6.46191 1.27461 6.39844 1.18828 6.44922 1.1832L6.50508 1.1375C6.3959 1.17813 6.35781 1.18574 6.32734 1.18574H6.27656C6.23848 1.18574 6.175 1.19336 6.0252 1.23906C5.68242 1.26445 5.43613 1.63516 5.31934 1.64531C5.2 1.70879 5.20508 1.72148 5.23301 1.72148C5.24063 1.72148 5.25078 1.71895 5.26094 1.71895C5.27109 1.71895 5.27871 1.71641 5.28633 1.71641C5.31426 1.71641 5.30664 1.7291 5.14414 1.80527C5.18223 1.81543 4.85977 1.95762 4.85723 2.18105C4.84707 2.26738 4.88262 2.32578 4.94102 2.32578C4.9918 2.32578 5.05527 2.2877 5.12383 2.19121C5.35234 1.92715 5.83477 1.90176 6.04297 1.7418C5.91348 1.73164 5.93887 1.66562 5.9998 1.66562ZM4.83945 1.75449C4.8166 1.75449 4.84707 1.72656 4.88008 1.69863C4.91563 1.6707 4.95625 1.64277 4.95625 1.64277L4.95371 1.64531C5.09082 1.59199 5.00703 1.5793 5.08066 1.54375H5.07559C5.06035 1.54375 5.08828 1.52344 5.11367 1.50059C5.13906 1.48027 5.16191 1.45742 5.13906 1.45742C5.12637 1.45742 5.09336 1.46504 5.0375 1.48789C5.05527 1.4625 5.12383 1.44473 5.22031 1.39141C5.08066 1.43711 4.97148 1.46504 4.95879 1.46504C4.94863 1.46504 5.00703 1.44473 5.18223 1.39141C5.18984 1.39141 5.19746 1.39395 5.20254 1.39395C5.22031 1.39395 5.22793 1.38887 5.22539 1.38379C5.22285 1.37871 5.2127 1.37617 5.19492 1.37617C4.94355 1.39648 4.75566 1.55391 4.81152 1.57422C4.84453 1.56406 4.86738 1.55898 4.88262 1.55898C4.91563 1.55898 4.90039 1.58691 4.83437 1.62754C4.86484 1.69863 4.32656 1.88145 4.26562 1.94746C4.29609 1.92969 4.31641 1.92461 4.32656 1.92461C4.36719 1.92461 4.31387 2.00332 4.26055 2.04141C4.29355 2.07188 4.31894 2.08203 4.33926 2.08203C4.39258 2.08203 4.41543 2.0084 4.46113 1.98555C4.47129 2.00586 4.48145 2.01602 4.49414 2.01602C4.5373 2.01602 4.59062 1.90937 4.63379 1.85352C4.64648 1.86621 4.66172 1.87637 4.68203 1.87637C4.72266 1.87637 4.78359 1.84336 4.88008 1.74941C4.85977 1.75195 4.84453 1.75449 4.83945 1.75449ZM4.25547 2.22168C4.16406 2.27754 4.11582 2.30039 4.09551 2.30039C4.05742 2.30039 4.1082 2.2293 4.15391 2.15566C4.19961 2.08457 4.24023 2.01348 4.18184 2.01348C4.15391 2.01348 4.10312 2.02871 4.02187 2.06934C3.80098 2.2166 3.42773 2.62285 3.2627 2.62285H3.24746C3.51406 2.42734 3.43535 2.04395 3.80859 1.94492C4.17676 1.73418 4.42812 1.8002 4.75566 1.55898C4.65918 1.60723 4.51699 1.66055 4.48398 1.66055C4.46367 1.66055 4.49414 1.63516 4.62617 1.57168C4.61348 1.57422 4.60332 1.57676 4.5957 1.57676C4.50684 1.57676 5.17969 1.33555 5.2127 1.33047C4.93594 1.36855 4.48906 1.59961 4.42812 1.59961C4.42051 1.59961 4.42051 1.59707 4.42051 1.59199C4.43066 1.58438 4.43066 1.5793 4.42051 1.5793C4.3875 1.5793 4.25039 1.625 4.11074 1.6707C3.97363 1.71641 3.83398 1.76465 3.80352 1.76465C3.79336 1.76465 3.79336 1.75957 3.80859 1.74941C2.61016 2.42988 1.60977 3.57754 1.29746 4.93848C1.42695 5.23555 1.33809 5.80176 1.55137 5.9668C1.79512 6.17246 1.34316 6.76914 1.4625 7.1373C1.58438 7.80254 2.10996 8.25703 2.16582 8.9375C2.2623 9.40469 2.61523 9.97598 2.7625 10.273C2.87422 10.3848 3.18145 10.7072 3.23477 10.7072C3.25508 10.7072 3.24238 10.659 3.16113 10.5295C3.11035 10.3848 2.81582 10.0064 2.95801 10.0064C2.96563 10.0064 2.97324 10.0064 2.9834 10.009C2.8082 9.83125 3.37188 9.87949 2.97832 9.63828C2.93262 9.58242 2.92246 9.56465 2.93262 9.56465C2.94531 9.56465 2.98086 9.58496 3.02148 9.60527C3.06465 9.62559 3.11543 9.6459 3.15605 9.6459C3.21953 9.6459 3.2627 9.60273 3.2373 9.44531C3.24746 9.45039 3.25762 9.45039 3.26523 9.45039C3.33125 9.45039 3.3084 9.3209 3.31348 9.19141C3.31855 9.06191 3.35156 8.93242 3.5293 8.93242C3.54961 8.93242 3.57246 8.93496 3.59531 8.9375C4.00664 8.71406 3.64863 8.09707 4.1209 7.87109C4.10313 7.3582 3.41504 7.33281 3.15605 7.12461C3.11289 7.15 3.07227 7.15762 3.03164 7.15762C2.98594 7.15762 2.94531 7.14746 2.90977 7.13477C2.87422 7.12461 2.84121 7.11191 2.81836 7.11191C2.81328 7.11191 2.8082 7.11191 2.80313 7.11445C3.24492 6.99766 2.92246 6.3832 2.55684 6.3832H2.53145C2.50352 6.1166 2.36641 6.21816 2.35117 5.99727C2.32832 6.00996 2.30547 6.01504 2.28262 6.01504C2.22168 6.01504 2.16582 5.97188 2.11758 5.93125C2.06934 5.88809 2.02871 5.84746 1.99316 5.84746C1.96523 5.84746 1.93984 5.87539 1.91699 5.95664C1.94238 5.83223 1.93477 5.7916 1.90937 5.7916C1.88398 5.7916 1.83828 5.83477 1.7875 5.87793C1.73926 5.92109 1.6834 5.96426 1.64023 5.96426H1.62754C1.33047 5.75352 1.63008 5.38027 1.47266 5.09336C1.57422 4.98418 1.61484 4.79883 1.56914 4.79883C1.54629 4.79883 1.50059 4.84453 1.42949 4.96895C1.32793 4.70996 1.59707 4.12344 1.82559 4.09043C1.8332 4.09043 1.83828 4.08789 1.8459 4.08789C1.88652 4.08789 1.92715 4.1082 1.9627 4.15137C1.98301 4.2707 1.93223 4.52207 1.95254 4.52207C1.9627 4.52207 1.98301 4.47129 2.03379 4.33926C2.0998 4.03711 2.56191 3.81875 2.61016 3.6334C2.6127 3.63594 2.6127 3.63594 2.61523 3.63594C2.66855 3.63594 3.01133 3.33379 3.16113 3.30078C3.21953 3.24238 3.26016 3.22207 3.29063 3.22207C3.32363 3.22207 3.34141 3.24746 3.3541 3.27031C3.3668 3.2957 3.37695 3.31855 3.38965 3.31855C3.3998 3.31855 3.4125 3.30332 3.43535 3.26016C3.35664 3.10527 3.55977 2.95801 3.50391 2.95801C3.48359 2.95801 3.42266 2.97832 3.29824 3.0291C3.27793 3.03926 3.26777 3.0418 3.2627 3.0418C3.24746 3.0418 3.3084 3.00117 3.39727 2.96055C3.48613 2.91992 3.59785 2.8793 3.6918 2.8793C3.7375 2.8793 3.77813 2.88945 3.80859 2.91484C4.20215 2.8209 3.98633 2.69141 4.00664 2.69141H4.01172C4.12344 2.62539 4.09043 2.37656 4.25547 2.22168ZM2.4959 3.26016C2.49082 3.26016 2.51367 3.22715 2.58984 3.1332C2.74727 3.01641 2.87422 2.9377 2.72949 2.86152C2.79297 2.83359 2.85391 2.80059 2.9123 2.76504C2.90977 2.88945 2.80566 3.1916 2.7498 3.1916C2.73711 3.1916 2.72441 3.17383 2.71934 3.13574C2.75234 3.07734 2.75488 3.05449 2.74219 3.05449C2.72187 3.05449 2.66348 3.10527 2.60762 3.15859C2.55176 3.20684 2.50098 3.26016 2.4959 3.26016ZM2.64062 3.32871C2.57207 3.32871 2.58477 3.28555 2.79551 3.24238C2.88691 3.22969 2.81582 3.23477 2.925 3.20938C2.81836 3.2957 2.69902 3.32871 2.64062 3.32871ZM6.58887 3.07227C6.61934 3.06719 6.64219 3.06719 6.65996 3.06719C6.73359 3.06719 6.70059 3.09766 6.65742 3.12812C6.61426 3.15859 6.56094 3.18906 6.59141 3.18906C6.60918 3.18906 6.65742 3.17891 6.75645 3.15098C7.25664 3.11543 6.56094 2.69141 6.67266 2.54922L6.64219 2.53906C6.43652 2.80059 6.7793 2.80566 6.58887 3.07227ZM6.38066 3.08242C6.41621 3.08242 6.46191 3.0418 6.51016 2.92754C6.57617 2.84883 6.54824 2.83867 6.47715 2.80059C6.28164 2.85137 6.29941 3.08242 6.38066 3.08242ZM8.13262 3.8873C8.125 3.8873 8.11992 3.88984 8.11484 3.89238C8.13516 3.89746 8.15547 3.90254 8.17578 3.90254C8.15547 3.89238 8.14277 3.8873 8.13262 3.8873ZM11.5426 4.51953C11.5857 4.61348 11.6086 4.65156 11.6111 4.65156C11.6289 4.65156 11.2912 3.82891 11.1516 3.68164C10.4229 2.4832 9.22441 1.5666 7.8584 1.22383H7.85586C7.82031 1.22383 7.86094 1.2416 7.90918 1.25937C7.95742 1.27715 8.01582 1.29492 8.01582 1.29492C8.01582 1.29492 7.97773 1.28223 7.86094 1.24922C7.73145 1.21113 7.59941 1.1832 7.46484 1.17305C7.44199 1.18066 8.0209 1.40918 8.40938 1.52852C8.27988 1.48789 8.14531 1.45234 8.1123 1.45234C8.08945 1.45234 8.1123 1.46758 8.20625 1.5082C8.09199 1.4752 8.04375 1.45996 8.03867 1.45996C8.03105 1.45996 8.19102 1.51328 8.34082 1.5666C8.49316 1.61992 8.63789 1.67324 8.59727 1.67324C8.58711 1.67324 8.55918 1.66816 8.51602 1.66055C8.64551 1.73164 8.69121 1.75957 8.68359 1.75957C8.6709 1.75957 8.51094 1.6834 8.3459 1.60723C8.1834 1.53105 8.01836 1.45488 7.99551 1.45488C7.98281 1.45488 8.01582 1.48027 8.12754 1.54629C8.27988 1.6123 8.43223 1.67832 8.38906 1.67832C8.36875 1.67832 8.31035 1.66563 8.19609 1.63262C8.45 1.76211 8.01582 1.71133 8.16309 1.88652C8.08184 1.81035 8.04883 1.78496 8.04121 1.78496C8.03359 1.78496 8.05391 1.81543 8.07422 1.8459C8.09453 1.87637 8.10977 1.90684 8.09199 1.90684H8.08691C8.26465 2.0998 7.9625 1.92715 8.17832 2.0998C8.01582 2.02617 7.73906 1.9043 7.86348 1.9043C7.89395 1.9043 7.95234 1.91191 8.04375 1.93223C7.87871 1.73926 7.41152 1.73164 7.40137 1.70879C7.28457 1.71641 7.28203 1.80527 7.30234 1.96777C7.2998 2.22422 7.04844 2.2293 7.08145 2.37656C7.08145 2.37402 7.08398 2.37402 7.08398 2.37402C7.08906 2.37402 7.0916 2.4248 7.10684 2.47812C7.12461 2.52891 7.15508 2.58223 7.22109 2.58223C7.25664 2.58223 7.30234 2.56699 7.3582 2.52891C7.43691 2.67109 7.50801 2.72187 7.56387 2.72187C7.64766 2.72187 7.69844 2.60762 7.69336 2.50352C7.60195 2.45273 7.48262 2.03125 7.61465 2.03125C7.63496 2.03125 7.66035 2.04141 7.69336 2.06426C7.4877 2.56953 8.50586 2.23184 7.92949 2.46289C8.05898 2.63301 7.84824 2.62539 7.90918 2.83105C7.81016 2.85898 7.70098 2.88437 7.60449 2.88437C7.4623 2.88437 7.35313 2.82344 7.36582 2.61016C7.18809 2.7041 7.54355 3.02148 7.19063 3.02148H7.17031C7.0002 3.33379 6.36289 3.22715 6.86309 3.55723C6.89102 3.70195 6.79961 3.72734 6.68281 3.72734C6.65234 3.72734 6.61934 3.7248 6.58633 3.72227C6.55332 3.71973 6.52031 3.71973 6.48984 3.71973C6.35781 3.71973 6.26387 3.75273 6.34512 3.9584C6.28672 4.17168 6.42383 4.26562 6.59141 4.26562C6.79453 4.26562 7.04336 4.13359 7.06113 3.91523C7.17031 3.7502 7.30996 3.68164 7.45469 3.68164C7.6832 3.68164 7.92441 3.8543 8.08184 4.06758C8.09453 4.08789 8.10469 4.09551 8.10977 4.09551C8.12246 4.09551 8.10977 4.04473 8.10469 3.99395C8.09961 3.95332 8.09961 3.9127 8.11484 3.9C7.88887 3.83652 7.71621 3.5623 7.79238 3.5623C7.81777 3.5623 7.87109 3.59277 7.95742 3.67402H7.97012C8.1123 3.67402 8.22402 3.78574 8.31035 3.89746C8.39922 4.00918 8.46523 4.1209 8.52363 4.1209C8.54648 4.1209 8.56934 4.10059 8.58965 4.05488C8.57949 4.03965 8.5541 3.99648 8.54141 3.95332C8.52617 3.9 8.52617 3.84668 8.59473 3.84668C8.62266 3.84668 8.66074 3.85684 8.71406 3.87715C8.88672 3.83145 8.60488 3.38203 8.8334 3.38203C8.85625 3.38203 8.88418 3.38711 8.91973 3.39727C8.91719 3.47598 8.95273 3.50391 8.98574 3.50391C9.05176 3.50391 9.11777 3.40996 8.95781 3.38203C9.01875 3.32363 9.0543 3.30078 9.07969 3.30078C9.16856 3.30078 9.09746 3.59531 9.40469 3.59531C9.50879 3.8416 8.50078 3.61309 8.82324 4.08535C8.89688 4.13867 8.98828 4.14883 9.07715 4.14883C9.10508 4.14883 9.13047 4.14883 9.15586 4.14629C9.18125 4.14629 9.20664 4.14375 9.22949 4.14375C9.38691 4.14375 9.49863 4.18184 9.43008 4.50684C9.34629 4.56777 9.25234 4.58809 9.15586 4.58809C9.06953 4.58809 8.9832 4.57285 8.89941 4.55762C8.81563 4.54238 8.73438 4.52715 8.66074 4.52715C8.54648 4.52715 8.45508 4.56523 8.39922 4.69727C8.10215 4.57539 7.71113 4.57031 7.74922 4.20215C7.23125 4.27578 6.69043 4.2377 6.30957 4.55508C6.28672 5.01973 5.48945 5.16953 5.68242 5.69766C5.45137 6.18516 5.96172 6.86816 6.48223 6.86816C6.5 6.86816 6.52031 6.86816 6.53809 6.86562C6.82246 6.86309 7.10938 6.73613 7.36074 6.73613C7.49023 6.73613 7.60703 6.76914 7.70859 6.8707C7.73145 6.86816 7.75176 6.86562 7.76953 6.86562C8.15801 6.86562 7.64512 7.48262 8.10977 7.58672C8.53125 8.02344 7.85078 8.47285 8.1834 8.8918C8.21894 9.21934 8.38145 9.49356 8.38145 9.81348C8.42461 9.81855 8.46523 9.82109 8.5084 9.82109C9.04414 9.82109 9.3793 9.35391 9.69414 9.00098C9.59766 8.47285 10.4432 8.36875 10.1537 7.77715C10.0191 7.12969 10.791 6.74629 10.7479 6.09883C10.7555 6.00742 10.7301 5.97949 10.692 5.97949C10.6539 5.97949 10.598 6.00742 10.5447 6.03281C10.4889 6.06074 10.4279 6.08613 10.3797 6.08613C10.3162 6.08613 10.268 6.04297 10.2629 5.90078C9.88965 5.55293 9.71953 5.08066 9.37168 4.69727C9.82363 4.91563 10.0801 5.4082 10.2883 5.85508C10.3061 5.86016 10.3238 5.8627 10.3441 5.8627C10.7123 5.8627 11.2252 4.98164 10.6666 4.76836C10.6361 4.85215 10.5955 4.88262 10.5473 4.88262C10.4635 4.88262 10.367 4.78105 10.2984 4.68203C10.2299 4.58047 10.1943 4.47891 10.2324 4.47891C10.2578 4.47891 10.3137 4.51953 10.4102 4.62617C10.5193 4.69473 10.626 4.7125 10.7377 4.7125C10.8469 4.7125 10.9586 4.69473 11.0754 4.68457C11.2227 4.74297 11.2861 4.93086 11.3318 4.93086C11.3395 4.93086 11.3496 4.92324 11.3572 4.90547C11.474 5.18477 11.6086 5.68242 11.7305 5.81699C11.667 5.39043 11.6518 4.93848 11.5426 4.51953ZM10.1258 3.93301C9.83887 3.85937 9.74492 3.50391 9.51894 3.29824C9.51641 3.24238 9.60019 3.25254 9.57988 3.15859C9.88457 3.25254 9.78555 3.34648 9.75762 3.36426C9.86934 3.54961 10.1816 3.67656 10.1258 3.93301ZM6.18262 2.00078C5.90586 2.08203 5.86777 1.99316 5.91602 2.16328C5.93633 2.17852 5.97441 2.18359 6.0125 2.18359C6.14707 2.18613 6.32988 2.10742 6.18262 2.00078ZM10.2477 8.9959C10.6107 8.68867 10.6564 8.32305 10.6742 7.95234C10.5117 8.26973 10.0293 8.62012 10.2477 8.9959ZM8.59473 4.04473C8.59219 4.04727 8.59219 4.04727 8.59219 4.0498C8.59473 4.05488 8.59727 4.05488 8.59727 4.05488C8.59727 4.05488 8.59727 4.05234 8.59473 4.04473ZM6.5 0C2.90977 0 0 2.90977 0 6.5C0 10.0902 2.90977 13 6.5 13C10.0902 13 13 10.0902 13 6.5C13 2.90977 10.0902 0 6.5 0ZM6.5 12.4998C3.18652 12.4998 0.500195 9.81348 0.500195 6.5C0.500195 3.18652 3.18652 0.500195 6.5 0.500195C9.81348 0.500195 12.4998 3.18652 12.4998 6.5C12.4998 9.81348 9.81348 12.4998 6.5 12.4998Z" fill="#707276"/>
</svg>
